<svg version="1.1" xmlns="http://www.w3.org/2000/svg" xmlns:xlink="http://www.w3.org/1999/xlink" width="512.000000pt" height="512.000000pt" viewBox="0,0,256,256"><g fill="#d9c6b0" fill-rule="nonzero" stroke="none" stroke-width="1" stroke-linecap="butt" stroke-linejoin="miter" stroke-miterlimit="10" stroke-dasharray="" stroke-dashoffset="0" font-family="none" font-weight="none" font-size="none" text-anchor="none" style="mix-blend-mode: normal"><g transform="translate(4.60353,-0.45646) scale(0.5,0.5)"><g transform="translate(0,512) scale(0.1,-0.1)"><path d="M2670,4050v-310h-468h-469l-6,-97c-4,-54 -7,-430 -7,-837v-738l-27,6c-16,4 -75,10 -134,13c-198,10 -365,-52 -504,-191c-92,-91 -141,-170 -177,-286c-19,-62 -23,-96 -22,-200c1,-107 5,-137 27,-206c106,-322 438,-514 777,-450c248,46 467,254 525,498c8,35 15,84 15,110v47l-60,32c-136,72 -266,230 -316,382c-24,72 -27,98 -27,212c0,114 3,140 27,212c33,101 105,211 187,287c54,50 151,116 172,116c4,0 7,-242 7,-537c0,-296 3,-575 6,-620c6,-76 9,-82 33,-92c55,-21 109,-32 196,-38c121,-8 233,14 345,69c115,55 248,186 302,298c66,136 65,112 60,873l-4,687h-229h-229v225v225h705h705v218c0,121 -3,260 -6,310l-7,92h-698h-699zM2665,2993c-4,-164 -9,-300 -10,-301c-2,-2 -27,1 -55,7c-109,23 -223,13 -387,-35l-23,-6v316v316h241h241z"></path></g></g></g></svg>